<svg data-v-423bf9ae="" xmlns="http://www.w3.org/2000/svg" viewBox="0 0 789 90" class="iconLeft"><!----><!----><!----><g data-v-423bf9ae="" id="58a8da35-7e55-4931-9fc4-159abf081386" fill="white" transform="matrix(6.054490506946714,0,0,6.054490506946714,181.15841371928008,4.828457213078728)"><path d="M2.18 7.92L5.40 7.92L7.64 11.48L8.89 11.48L6.45 7.74C7.49 7.50 8.69 6.90 8.69 5.11C8.69 3.35 7.48 2.21 5.57 2.21L1.13 2.21L1.13 11.48L2.18 11.48ZM2.18 3.21L5.45 3.21C6.76 3.21 7.64 3.93 7.64 5.11C7.64 6.55 6.38 6.93 5.39 6.93L2.18 6.93ZM13.15 4.37C11.00 4.37 9.67 5.98 9.67 7.98C9.67 9.98 11.00 11.59 13.15 11.59C15.29 11.59 16.62 9.98 16.62 7.98C16.62 5.98 15.29 4.37 13.15 4.37ZM13.15 10.64C11.59 10.64 10.72 9.42 10.72 7.98C10.72 6.54 11.59 5.32 13.15 5.32C14.70 5.32 15.57 6.54 15.57 7.98C15.57 9.42 14.70 10.64 13.15 10.64ZM18.00 1.68L18.00 11.48L19.05 11.48L19.05 7.45C19.05 6.19 20.01 5.32 21.17 5.32C22.32 5.32 23.13 6.16 23.13 7.43L23.13 11.48L24.18 11.48L24.18 7.41C24.18 5.42 22.82 4.37 21.38 4.37C20.24 4.37 19.56 4.90 19.05 5.57L19.05 1.68ZM25.93 11.48L26.98 11.48L26.98 4.48L25.93 4.48ZM25.89 1.93L25.89 3.30L27.02 3.30L27.02 1.93ZM30.60 11.48L30.60 5.40L32.21 5.40L32.21 4.48L30.60 4.48L30.60 1.97L29.55 1.97L29.55 4.48L28.13 4.48L28.13 5.40L29.55 5.40L29.55 11.48ZM40.54 10.57C38.29 10.57 37.03 8.93 37.03 6.85C37.03 4.76 38.29 3.12 40.54 3.12C42.07 3.12 43.08 3.85 43.55 4.98L44.66 4.98C44.07 3.29 42.56 2.10 40.46 2.10C37.67 2.10 35.98 4.21 35.98 6.85C35.98 9.48 37.67 11.59 40.46 11.59C42.56 11.59 44.07 10.40 44.66 8.71L43.55 8.71C43.08 9.84 42.07 10.57 40.54 10.57ZM46.00 1.68L46.00 11.48L47.05 11.48L47.05 7.45C47.05 6.19 48.01 5.32 49.17 5.32C50.32 5.32 51.13 6.16 51.13 7.43L51.13 11.48L52.18 11.48L52.18 7.41C52.18 5.42 50.82 4.37 49.38 4.37C48.24 4.37 47.56 4.90 47.05 5.57L47.05 1.68ZM56.97 4.37C54.82 4.37 53.49 5.98 53.49 7.98C53.49 9.98 54.82 11.59 56.97 11.59C59.11 11.59 60.44 9.98 60.44 7.98C60.44 5.98 59.11 4.37 56.97 4.37ZM56.97 10.64C55.41 10.64 54.54 9.42 54.54 7.98C54.54 6.54 55.41 5.32 56.97 5.32C58.52 5.32 59.39 6.54 59.39 7.98C59.39 9.42 58.52 10.64 56.97 10.64ZM67.93 11.48L67.93 4.48L66.88 4.48L66.88 8.51C66.88 9.77 65.93 10.64 64.76 10.64C63.62 10.64 62.80 9.80 62.80 8.53L62.80 4.48L61.75 4.48L61.75 8.55C61.75 10.54 63.11 11.59 64.55 11.59C65.69 11.59 66.37 11.06 66.88 10.39L66.88 11.48ZM72.70 4.37C70.66 4.37 69.31 5.98 69.31 7.98C69.31 9.98 70.66 11.59 72.70 11.59C73.86 11.59 74.69 11.12 75.21 10.36L75.21 11.48L76.26 11.48L76.26 1.68L75.21 1.68L75.21 5.61C74.69 4.86 73.86 4.37 72.70 4.37ZM72.84 10.64C71.29 10.64 70.36 9.42 70.36 7.98C70.36 6.54 71.29 5.32 72.84 5.32C74.40 5.32 75.26 6.54 75.26 7.98C75.26 9.42 74.40 10.64 72.84 10.64ZM78.08 1.68L78.08 11.48L79.13 11.48L79.13 7.45C79.13 6.19 80.08 5.32 81.24 5.32C82.39 5.32 83.20 6.16 83.20 7.43L83.20 11.48L84.25 11.48L84.25 7.41C84.25 5.42 82.89 4.37 81.45 4.37C80.32 4.37 79.63 4.90 79.13 5.57L79.13 1.68ZM88.96 4.37C86.91 4.37 85.57 5.98 85.57 7.98C85.57 9.98 86.91 11.59 88.96 11.59C90.12 11.59 90.94 11.12 91.46 10.36L91.46 11.48L92.51 11.48L92.51 4.48L91.46 4.48L91.46 5.61C90.94 4.86 90.12 4.37 88.96 4.37ZM89.10 10.64C87.54 10.64 86.62 9.42 86.62 7.98C86.62 6.54 87.54 5.32 89.10 5.32C90.65 5.32 91.52 6.54 91.52 7.98C91.52 9.42 90.65 10.64 89.10 10.64ZM97.96 4.37C96.22 4.37 95.52 5.73 95.38 6.20L95.38 4.48L94.33 4.48L94.33 11.48L95.38 11.48L95.38 8.40C95.38 6.86 96.33 5.42 97.90 5.42L98.03 5.42L98.03 4.37ZM99.16 11.48L100.21 11.48L100.21 4.48L99.16 4.48ZM99.12 1.93L99.12 3.30L100.25 3.30L100.25 1.93Z"></path></g><!----><g data-v-423bf9ae="" id="08784602-5057-412c-95a3-15f5a2981063" transform="matrix(5.454545454545454,0,0,5.454545454545454,-24.490914864973576,-63.563632965087876)" stroke="none" fill="white"><path clip-rule="evenodd" d="M26.7 13.4L25.2 16l6.6 4-6.6 4 1.5 2.6 8.7-5.3v-2.6l-8.7-5.3zm-13.4 0l-8.7 5.3v2.6l8.7 5.3 1.5-2.6-6.6-4 6.6-4-1.5-2.6zm3 14.2l2.9.7 3.5-15.8-2.9-.7-3.5 15.8z"></path></g><!----></svg>